<svg width="40" height="40" viewBox="0 0 40 40" fill="none" xmlns="http://www.w3.org/2000/svg">
<g filter="url(#filter0_d_925_5196)">
<rect x="12" y="4" width="24" height="24" rx="12" fill="url(#paint0_linear_925_5196)"/>
<g filter="url(#filter1_d_925_5196)">
<path d="M30.9846 14.8654L29.6626 20.5842C29.6364 20.7039 29.5684 20.8109 29.4703 20.8867C29.3722 20.9626 29.2502 21.0026 29.1252 20.9999H18.8287C18.7038 21.0026 18.5817 20.9626 18.4836 20.8867C18.3856 20.8109 18.3176 20.7039 18.2913 20.5842L17.0123 14.8654C16.9908 14.7687 16.9975 14.6681 17.0318 14.575C17.066 14.482 17.1263 14.4003 17.2058 14.3392C17.2855 14.278 17.3813 14.2401 17.4821 14.2298C17.5829 14.2196 17.6846 14.2374 17.7754 14.2814L20.9138 15.7703L23.5148 11.2667C23.5617 11.1857 23.6296 11.1184 23.7118 11.0715C23.7939 11.0247 23.8873 11 23.9823 11C24.0774 11 24.1708 11.0247 24.2529 11.0715C24.335 11.1184 24.403 11.1857 24.4499 11.2667L27.0508 15.7755L30.2107 14.2761C30.3022 14.2286 30.4058 14.208 30.509 14.2168C30.6122 14.2256 30.7106 14.2634 30.7923 14.3257C30.8741 14.3879 30.9357 14.472 30.9698 14.5677C31.0039 14.6635 31.0091 14.7668 30.9846 14.8654Z" fill="white"/>
</g>
</g>
<defs>
<filter id="filter0_d_925_5196" x="0" y="0" width="40" height="40" filterUnits="userSpaceOnUse" color-interpolation-filters="sRGB">
<feFlood flood-opacity="0" result="BackgroundImageFix"/>
<feColorMatrix in="SourceAlpha" type="matrix" values="0 0 0 0 0 0 0 0 0 0 0 0 0 0 0 0 0 0 127 0" result="hardAlpha"/>
<feOffset dx="-4" dy="4"/>
<feGaussianBlur stdDeviation="4"/>
<feComposite in2="hardAlpha" operator="out"/>
<feColorMatrix type="matrix" values="0 0 0 0 0 0 0 0 0 0 0 0 0 0 0 0 0 0 0.25 0"/>
<feBlend mode="normal" in2="BackgroundImageFix" result="effect1_dropShadow_925_5196"/>
<feBlend mode="normal" in="SourceGraphic" in2="effect1_dropShadow_925_5196" result="shape"/>
</filter>
<filter id="filter1_d_925_5196" x="15" y="9" width="18" height="14" filterUnits="userSpaceOnUse" color-interpolation-filters="sRGB">
<feFlood flood-opacity="0" result="BackgroundImageFix"/>
<feColorMatrix in="SourceAlpha" type="matrix" values="0 0 0 0 0 0 0 0 0 0 0 0 0 0 0 0 0 0 127 0" result="hardAlpha"/>
<feOffset/>
<feGaussianBlur stdDeviation="1"/>
<feComposite in2="hardAlpha" operator="out"/>
<feColorMatrix type="matrix" values="0 0 0 0 0 0 0 0 0 0 0 0 0 0 0 0 0 0 0.05 0"/>
<feBlend mode="normal" in2="BackgroundImageFix" result="effect1_dropShadow_925_5196"/>
<feBlend mode="normal" in="SourceGraphic" in2="effect1_dropShadow_925_5196" result="shape"/>
</filter>
<linearGradient id="paint0_linear_925_5196" x1="35.6" y1="4" x2="12" y2="28" gradientUnits="userSpaceOnUse">
<stop stop-color="#E6BF01"/>
<stop offset="1" stop-color="#CC4501"/>
</linearGradient>
</defs>
</svg>
