<svg width="21" height="20" viewBox="0 0 21 20" fill="none" xmlns="http://www.w3.org/2000/svg">
<path d="M13.8332 7.49156V16.9582C13.8332 18.1666 12.9665 18.6749 11.9082 18.0916L8.63318 16.2666C8.28318 16.0749 7.7165 16.0749 7.3665 16.2666L4.0915 18.0916C3.03317 18.6749 2.1665 18.1666 2.1665 16.9582V7.49156C2.1665 6.06656 3.33316 4.8999 4.75816 4.8999H11.2415C12.6665 4.8999 13.8332 6.06656 13.8332 7.49156Z" stroke="white" stroke-width="1.25" stroke-linecap="round" stroke-linejoin="round"/>
<path d="M18.8332 4.25828V13.725C18.8332 14.9333 17.9665 15.4416 16.9082 14.8583L13.8332 13.1416V7.49162C13.8332 6.06662 12.6665 4.89996 11.2415 4.89996H7.1665V4.25828C7.1665 2.83328 8.33316 1.66663 9.75816 1.66663H16.2415C17.6665 1.66663 18.8332 2.83328 18.8332 4.25828Z" stroke="white" stroke-width="1.25" stroke-linecap="round" stroke-linejoin="round"/>
<path d="M6.3335 10H9.66683" stroke="white" stroke-width="1.25" stroke-linecap="round" stroke-linejoin="round"/>
<path d="M8 11.6667V8.33337" stroke="white" stroke-width="1.25" stroke-linecap="round" stroke-linejoin="round"/>
</svg>
