<svg width="48" height="48" viewBox="0 0 48 48" fill="none" xmlns="http://www.w3.org/2000/svg">
<g clip-path="url(#clip0_3111_4044)">
<path d="M41.3043 10.5613C44.1902 14.2719 46 18.9353 46 24C46 36.0998 36.0998 46 24 46C11.9002 46 2 36.0998 2 24C2 11.9002 11.9002 2 24 2C29.0648 2 33.7281 3.80993 37.4387 6.69568" stroke="white" stroke-width="2.75" stroke-miterlimit="10"/>
<path d="M41.4283 10.4448C40.3588 11.5142 38.6248 11.5142 37.5553 10.4448C36.4858 9.37525 36.4858 7.64127 37.5553 6.57176C38.6248 5.50225 40.3588 5.50225 41.4283 6.57176C42.4978 7.64127 42.4978 9.37525 41.4283 10.4448Z" stroke="white" stroke-width="2.5" stroke-miterlimit="10"/>
<path d="M12.5832 31.5626C9.06059 26.2479 9.63871 18.9964 14.3177 14.3175C19.6562 8.97893 28.3438 8.97893 33.6824 14.3175C39.0208 19.656 39.0208 28.3437 33.6824 33.6823C29.0035 38.3612 21.7519 38.9393 16.4373 35.4166" stroke="white" stroke-width="2.75" stroke-miterlimit="10"/>
<path d="M16.2541 35.6188C15.1847 36.6883 13.4507 36.6883 12.3812 35.6188C11.3117 34.5493 11.3117 32.8153 12.3812 31.7459C13.4507 30.6763 15.1847 30.6763 16.2541 31.7459C17.3237 32.8153 17.3237 34.5493 16.2541 35.6188Z" stroke="white" stroke-width="2.5" stroke-miterlimit="10"/>
<path d="M23.9999 29.4772C20.9791 29.4772 18.5227 27.0207 18.5227 24C18.5227 20.9792 20.9791 18.5228 23.9999 18.5228C27.0206 18.5228 29.4771 20.9792 29.4771 24C29.4771 27.0207 27.0206 29.4772 23.9999 29.4772Z" stroke="white" stroke-width="2.75" stroke-miterlimit="10"/>
</g>
<defs>
<clipPath id="clip0_3111_4044">
<rect width="48" height="48" fill="white"/>
</clipPath>
</defs>
</svg>
