<svg width="48" height="48" viewBox="0 0 48 48" fill="none" xmlns="http://www.w3.org/2000/svg">
<path d="M33.2486 5.24304C34.2708 5.70996 35.2285 6.36411 36.0697 7.20541C39.0947 10.2304 39.0947 15.1348 36.0697 18.1598C33.6498 20.5797 29.3009 20.076 28.2063 16.8485C29.2179 17.8602 30.858 17.8602 31.8696 16.8485C33.1341 15.5841 33.1341 13.5339 31.8696 12.2694C30.2889 10.6887 27.3543 10.9419 25.5275 12.6297C22.3505 15.8067 22.2664 21.3178 25.4434 24.4948C29.4146 28.4659 35.8531 28.4659 39.8242 24.4948C41.5774 22.7416 43.8113 21.7624 46.1016 21.5572" stroke="white" stroke-width="3" stroke-miterlimit="10" stroke-linecap="round" stroke-linejoin="round"/>
<path d="M1.89844 28.3724C7.67836 27.224 12.5176 23.0538 14.4199 17.304L15.3692 14.4346C16.9239 9.73552 20.6979 6.22991 25.2964 4.92555" stroke="white" stroke-width="3" stroke-miterlimit="10" stroke-linecap="round" stroke-linejoin="round"/>
<path d="M1.89844 18.9409C6.96598 18.9409 11.7223 17.1703 15.4742 14.1299" stroke="white" stroke-width="3" stroke-miterlimit="10" stroke-linecap="round" stroke-linejoin="round"/>
<path d="M17.2617 24.8973C17.2617 28.837 20.4496 32.0249 24.3893 32.0249" stroke="white" stroke-width="3" stroke-miterlimit="10" stroke-linecap="round" stroke-linejoin="round"/>
<path d="M33.2261 33.9718C37.1064 33.9718 40.9868 32.4915 43.9473 29.5309C44.6008 28.8775 45.2991 28.2961 46.0323 27.7869" stroke="white" stroke-width="3" stroke-miterlimit="10" stroke-linecap="round" stroke-linejoin="round"/>
<path d="M46.1016 41.3446C43.0499 44.3962 38.1023 44.3962 35.0508 41.3446C31.9992 38.293 27.0515 38.293 24 41.3446C20.9484 44.3962 16.0008 44.3962 12.9492 41.3446C9.89759 38.293 4.94998 38.293 1.89844 41.3446" stroke="white" stroke-width="3" stroke-miterlimit="10" stroke-linecap="round" stroke-linejoin="round"/>
</svg>
