<svg width="48" height="48" viewBox="0 0 48 48" fill="none" xmlns="http://www.w3.org/2000/svg">
<g clip-path="url(#clip0_3111_4167)">
<path d="M24 2.00007V4.90088" stroke="white" stroke-width="2.75" stroke-miterlimit="10" stroke-linecap="round" stroke-linejoin="round"/>
<path d="M35.3859 3.80427L33.3347 5.85547" stroke="white" stroke-width="2.75" stroke-miterlimit="10" stroke-linecap="round" stroke-linejoin="round"/>
<path d="M12.614 3.80427L14.6652 5.85547" stroke="white" stroke-width="2.75" stroke-miterlimit="10" stroke-linecap="round" stroke-linejoin="round"/>
<path d="M45.9999 10.7952L45.9994 10.795L41.6194 9.40433L45.96 6.11528" stroke="white" stroke-width="2.75" stroke-miterlimit="10" stroke-linecap="round" stroke-linejoin="round"/>
<path d="M45.9994 10.7951L41.6597 14.0833" stroke="white" stroke-width="2.75" stroke-miterlimit="10" stroke-linecap="round" stroke-linejoin="round"/>
<path d="M2 10.7952L2.00055 10.795L6.38056 9.40433L2.03998 6.11528" stroke="white" stroke-width="2.75" stroke-miterlimit="10" stroke-linecap="round" stroke-linejoin="round"/>
<path d="M2.00049 10.7951L6.34024 14.0833" stroke="white" stroke-width="2.75" stroke-miterlimit="10" stroke-linecap="round" stroke-linejoin="round"/>
<path d="M37.1735 33.8379C37.3588 34.4203 37.4593 35.0402 37.4593 35.6837C37.4593 39.0431 34.7362 41.7661 31.3769 41.7661C31.3394 41.7661 31.3029 41.7643 31.2655 41.7634C30.8428 44.1706 28.7432 46 26.2155 46C25.4214 46 24.671 45.8193 24 45.4979C23.3291 45.8193 22.5787 46 21.7855 46C19.2568 46 17.1572 44.1706 16.7346 41.7634C16.6971 41.7643 16.6606 41.7661 16.6232 41.7661C13.2638 41.7661 10.5408 39.0431 10.5408 35.6837C10.5408 35.0402 10.6413 34.4203 10.8265 33.8379C9.46631 32.507 8.62109 30.6511 8.62109 28.5972C8.62109 26.284 9.6927 24.2227 11.366 22.8781C11.02 22.1405 10.8256 21.3171 10.8256 20.449C10.8256 18.343 11.9613 16.5017 13.6537 15.5058C13.6537 15.5058 13.6545 15.5049 13.6564 15.504C14.1896 15.1909 14.7774 14.9608 15.4028 14.833C15.5853 14.7956 15.7715 14.7664 15.9604 14.7472C15.9578 14.6842 15.955 14.6203 15.955 14.5573C15.955 11.7238 18.2518 9.42705 21.0853 9.42705C22.1679 9.42705 23.172 9.7639 24 10.3363C24.8281 9.7639 25.8322 9.42705 26.9148 9.42705C29.7483 9.42705 32.0451 11.7238 32.0451 14.5573C32.0451 14.6203 32.0423 14.6842 32.0397 14.7472C34.9252 15.0457 37.1745 17.4849 37.1745 20.449C37.1745 21.3171 36.98 22.1405 36.634 22.8781C38.3073 24.2227 39.379 26.284 39.379 28.5972C39.379 30.6511 38.5337 32.507 37.1735 33.8379Z" stroke="white" stroke-width="2.75" stroke-miterlimit="10" stroke-linecap="round" stroke-linejoin="round"/>
<path d="M10.7891 33.962C11.2938 32.244 13.737 30.2454 15.3517 29.527" stroke="white" stroke-width="2.75" stroke-miterlimit="10" stroke-linecap="round" stroke-linejoin="round"/>
<path d="M31.5273 21.2815C33.7453 21.1272 35.9723 22.0167 37.4693 23.6613" stroke="white" stroke-width="2.75" stroke-miterlimit="10" stroke-linecap="round" stroke-linejoin="round"/>
<path d="M24 10.3363V45.4979" stroke="white" stroke-width="2.75" stroke-miterlimit="10" stroke-linecap="round" stroke-linejoin="round"/>
<path d="M28.8931 36.3337C28.8931 36.3337 31.7324 35.5359 32.2411 32.8585" stroke="white" stroke-width="2.75" stroke-miterlimit="10" stroke-linecap="round" stroke-linejoin="round"/>
<path d="M15.4926 26.2715C15.4926 26.2715 14.6198 29.8488 17.2201 32.0432" stroke="white" stroke-width="2.75" stroke-miterlimit="10" stroke-linecap="round" stroke-linejoin="round"/>
<path d="M15.9602 14.7471C17.3165 14.6731 17.5779 14.6668 19.2859 15.0922" stroke="white" stroke-width="2.75" stroke-miterlimit="10" stroke-linecap="round" stroke-linejoin="round"/>
<path d="M13.6563 15.504C13.6544 15.5049 13.6536 15.5059 13.6536 15.5059" stroke="white" stroke-width="2.75" stroke-miterlimit="10" stroke-linecap="round" stroke-linejoin="round"/>
<path d="M19.2859 20.9673C19.2859 20.9673 22.448 21.8312 23.9999 25.3588" stroke="white" stroke-width="2.75" stroke-miterlimit="10" stroke-linecap="round" stroke-linejoin="round"/>
<path d="M24 32.2115C24 32.2115 25.7362 28.5929 28.8932 28.6264" stroke="white" stroke-width="2.75" stroke-miterlimit="10" stroke-linecap="round" stroke-linejoin="round"/>
</g>
<defs>
<clipPath id="clip0_3111_4167">
<rect width="48" height="48" fill="white"/>
</clipPath>
</defs>
</svg>
