<svg width="48" height="48" viewBox="0 0 48 48" fill="none" xmlns="http://www.w3.org/2000/svg">
<g clip-path="url(#clip0_3111_4016)">
<path d="M31.2701 39.6587V42.3081C31.2701 44.5401 29.4846 45.9539 27.635 45.9959C26.5205 46.0211 25.3826 45.5482 24.5981 44.4557C24.1484 43.8296 23.9066 43.0785 23.9067 42.3077C23.9068 38.7001 23.9068 8.42972 23.9068 5.53005C23.9068 5.05274 23.7982 4.58214 23.5891 4.15311L23.5244 4.02057C21.8498 0.585345 16.6365 1.78724 16.6365 5.64293C16.6366 13.6931 16.6366 26.2579 16.6366 33.0416C16.6366 36.3024 12.6752 37.9134 10.3989 35.5787C9.73701 34.8998 9.36651 33.9892 9.36651 33.0411V16.411C9.36651 13.1199 5.37773 11.4823 3.06517 13.8242C2.38476 14.5132 2.00317 15.4426 2.00317 16.411V30.1516" stroke="white" stroke-width="3" stroke-miterlimit="10" stroke-linecap="round" stroke-linejoin="round"/>
<path d="M45.9967 19.7125V32.9887C45.9967 33.5865 45.8511 34.1753 45.5725 34.7044C44.8572 36.0626 43.6062 36.6751 42.3616 36.6761C40.4903 36.6777 38.6334 35.2967 38.6334 32.9887V16.4096C38.6334 13.5085 35.4341 11.7473 32.9827 13.2987C31.9164 13.9736 31.27 15.1476 31.27 16.4096V40.5001" stroke="white" stroke-width="3" stroke-miterlimit="10" stroke-linecap="round" stroke-linejoin="round"/>
</g>
<defs>
<clipPath id="clip0_3111_4016">
<rect width="48" height="48" fill="white"/>
</clipPath>
</defs>
</svg>
