<svg width="48" height="48" viewBox="0 0 48 48" fill="none" xmlns="http://www.w3.org/2000/svg">
<path d="M36.2799 11.8359C37.3104 10.8055 38.7339 10.1682 40.3062 10.1682C43.4509 10.1682 46.0002 12.7175 46.0002 15.8622C46.0002 19.0069 43.4509 21.5562 40.3062 21.5562H13.3367" stroke="white" stroke-width="3" stroke-miterlimit="10" stroke-linecap="round" stroke-linejoin="round"/>
<path d="M17.6448 37.4882C18.6753 38.5186 20.0988 39.1559 21.6711 39.1559C24.8158 39.1559 27.3651 36.6066 27.3651 33.4619C27.3651 30.3172 24.8158 27.7679 21.6711 27.7679H2" stroke="white" stroke-width="3" stroke-miterlimit="10" stroke-linecap="round" stroke-linejoin="round"/>
<path d="M36.081 34.3056C36.7741 34.9987 37.7315 35.4274 38.789 35.4274C40.9041 35.4274 42.6188 33.7127 42.6188 31.5976C42.6188 29.4825 40.9041 27.7679 38.789 27.7679H31.9604" stroke="white" stroke-width="3" stroke-miterlimit="10" stroke-linecap="round" stroke-linejoin="round"/>
<path d="M2 15.3439H24.673" stroke="white" stroke-width="3" stroke-miterlimit="10" stroke-linecap="round" stroke-linejoin="round"/>
<path d="M17.3806 8.84766H29.8033" stroke="white" stroke-width="3" stroke-miterlimit="10" stroke-linecap="round" stroke-linejoin="round"/>
<path d="M7.85947 21.5562H6.229" stroke="white" stroke-width="3" stroke-miterlimit="10" stroke-linecap="round" stroke-linejoin="round"/>
</svg>
