<svg width="94" height="94" viewBox="0 0 94 94" fill="none" xmlns="http://www.w3.org/2000/svg">
<path d="M31.8941 8.54541C27.3509 8.54541 23.6538 12.2425 23.6538 16.7857V77.2143C23.6538 81.7575 27.3509 85.4546 31.8941 85.4546H62.1084C66.6515 85.4546 70.3487 81.7575 70.3487 77.2143V16.7857C70.3487 12.2425 66.6515 8.54541 62.1084 8.54541H31.8941ZM51.1214 77.2143H42.8811C41.3621 77.2143 40.1343 75.9865 40.1343 74.4676C40.1343 72.9486 41.3621 71.7208 42.8811 71.7208H51.1214C52.6403 71.7208 53.8681 72.9486 53.8681 74.4676C53.8681 75.9865 52.6403 77.2143 51.1214 77.2143Z" fill="url(#paint0_linear_913_7519)"/>
<path d="M81.7912 46.9807L85.0626 41.5312C85.5845 40.6632 85.5845 39.5727 85.0626 38.7048L81.7939 33.258L85.0626 27.8166C85.8426 26.5174 85.4224 24.8309 84.1204 24.0481C82.8185 23.268 81.132 23.6855 80.3519 24.9902L76.2317 31.8461C75.7099 32.7141 75.7099 33.8046 76.2317 34.6725L79.5031 40.1194L76.2317 45.5689C75.7099 46.4369 75.7099 47.5274 76.2317 48.3953L79.5031 53.8476L76.2317 59.3109C75.7099 60.1789 75.7099 61.2639 76.2317 62.1319L80.3519 69.0097C80.8655 69.8695 81.7774 70.3447 82.7086 70.3447C83.1893 70.3447 83.6755 70.2183 84.1177 69.9519C85.4196 69.1745 85.8426 67.488 85.0626 66.1861L81.7912 60.72L85.0626 55.2567C85.5845 54.3888 85.5845 53.301 85.0626 52.4331L81.7912 46.9807Z" fill="url(#paint1_linear_913_7519)"/>
<path d="M8.93888 55.2979L12.2075 60.7447L8.93888 66.186C8.1588 67.4853 8.57906 69.1718 9.88102 69.9546C10.3205 70.221 10.8067 70.3474 11.2901 70.3474C12.224 70.3474 13.1332 69.8722 13.6468 69.0152L17.767 62.1593C18.2888 61.2913 18.2888 60.2009 17.767 59.3329L14.4956 53.8861L17.767 48.4365C18.2888 47.5685 18.2888 46.4781 17.767 45.6101L14.4956 40.1578L17.767 34.6945C18.2888 33.8265 18.2888 32.7415 17.767 31.8735L13.6468 24.9957C12.8722 23.6855 11.183 23.2625 9.88102 24.0453C8.58181 24.8226 8.15606 26.5091 8.93888 27.8111L12.2103 33.2771L8.93888 38.7404C8.417 39.6084 8.417 40.6961 8.93888 41.5641L12.2103 47.0164L8.93888 52.466C8.41425 53.3395 8.41425 54.4272 8.93888 55.2979Z" fill="url(#paint2_linear_913_7519)"/>
<defs>
<linearGradient id="paint0_linear_913_7519" x1="47.0012" y1="8.54541" x2="47.0012" y2="85.4546" gradientUnits="userSpaceOnUse">
<stop stop-color="white"/>
<stop offset="1" stop-color="#999999"/>
</linearGradient>
<linearGradient id="paint1_linear_913_7519" x1="80.6474" y1="23.6555" x2="80.6474" y2="70.3447" gradientUnits="userSpaceOnUse">
<stop stop-color="white"/>
<stop offset="1" stop-color="#999999"/>
</linearGradient>
<linearGradient id="paint2_linear_913_7519" x1="13.3519" y1="23.6525" x2="13.3519" y2="70.3474" gradientUnits="userSpaceOnUse">
<stop stop-color="white"/>
<stop offset="1" stop-color="#999999"/>
</linearGradient>
</defs>
</svg>
