<svg width="24" height="24" viewBox="0 0 24 24" fill="none" xmlns="http://www.w3.org/2000/svg">
<path d="M9.88008 14.12L9.73008 14L9.55008 13.9L9.37008 13.85C9.20942 13.8178 9.04333 13.8256 8.88639 13.8727C8.72946 13.9197 8.5865 14.0047 8.47008 14.12C8.37116 14.2106 8.29567 14.3238 8.25008 14.45C8.19718 14.5697 8.16985 14.6991 8.16985 14.83C8.16985 14.9608 8.19718 15.0903 8.25008 15.21C8.35753 15.4503 8.54979 15.6425 8.79008 15.75C8.9103 15.8012 9.0394 15.8284 9.17008 15.83C9.30389 15.8275 9.43609 15.8003 9.56008 15.75C9.68196 15.7017 9.79135 15.6265 9.88008 15.53C9.97362 15.4387 10.0484 15.33 10.1001 15.21C10.1479 15.089 10.1717 14.96 10.1701 14.83C10.1735 14.6988 10.1461 14.5686 10.0901 14.45C10.0443 14.3263 9.97268 14.2138 9.88008 14.12ZM3.51008 8.75996C3.64239 8.75941 3.77327 8.73261 3.89515 8.68111C4.01702 8.62962 4.12747 8.55445 4.22008 8.45996L8.46008 4.21996C8.64633 4.0326 8.75087 3.77914 8.75087 3.51496C8.75087 3.25077 8.64633 2.99732 8.46008 2.80996C8.27272 2.62371 8.01927 2.51917 7.75508 2.51917C7.49089 2.51917 7.23744 2.62371 7.05008 2.80996L2.81008 7.04996C2.62383 7.23732 2.51929 7.49077 2.51929 7.75496C2.51929 8.01914 2.62383 8.2726 2.81008 8.45996C2.99471 8.64837 3.24631 8.7562 3.51008 8.75996ZM21.1901 15.54C21.0027 15.3537 20.7493 15.2492 20.4851 15.2492C20.2209 15.2492 19.9674 15.3537 19.7801 15.54L15.5401 19.78C15.3997 19.9192 15.3037 20.097 15.2643 20.2908C15.2249 20.4846 15.2439 20.6858 15.3188 20.8688C15.3937 21.0518 15.5213 21.2085 15.6852 21.3191C15.8492 21.4297 16.0423 21.4891 16.2401 21.49C16.3724 21.4894 16.5033 21.4626 16.6251 21.4111C16.747 21.3596 16.8575 21.2844 16.9501 21.19L21.1901 17C21.29 16.9064 21.3696 16.7934 21.4241 16.6678C21.4785 16.5422 21.5066 16.4068 21.5066 16.27C21.5066 16.1331 21.4785 15.9977 21.4241 15.8721C21.3696 15.7466 21.29 15.6335 21.1901 15.54ZM21.3601 9.87996C21.362 9.08601 21.0492 8.32366 20.4901 7.75996L16.2401 3.50996C15.6678 2.96695 14.909 2.66424 14.1201 2.66424C13.3312 2.66424 12.5724 2.96695 12.0001 3.50996L3.51008 12C2.94828 12.5625 2.63272 13.325 2.63272 14.12C2.63272 14.915 2.94828 15.6775 3.51008 16.24L7.76008 20.49C8.32258 21.0518 9.08508 21.3673 9.88008 21.3673C10.6751 21.3673 11.4376 21.0518 12.0001 20.49L20.4901 12C21.0492 11.4363 21.362 10.6739 21.3601 9.87996ZM19.0701 10.59L10.5901 19.07C10.4971 19.1637 10.3865 19.2381 10.2647 19.2888C10.1428 19.3396 10.0121 19.3658 9.88008 19.3658C9.74807 19.3658 9.61736 19.3396 9.4955 19.2888C9.37364 19.2381 9.26304 19.1637 9.17008 19.07L4.93008 14.83C4.83635 14.737 4.76196 14.6264 4.71119 14.5045C4.66042 14.3827 4.63428 14.252 4.63428 14.12C4.63428 13.9879 4.66042 13.8572 4.71119 13.7354C4.76196 13.6135 4.83635 13.5029 4.93008 13.41L13.4101 4.92996C13.503 4.83623 13.6136 4.76184 13.7355 4.71107C13.8574 4.6603 13.9881 4.63416 14.1201 4.63416C14.2521 4.63416 14.3828 4.6603 14.5047 4.71107C14.6265 4.76184 14.7371 4.83623 14.8301 4.92996L19.0701 9.16996C19.1638 9.26292 19.2382 9.37352 19.289 9.49538C19.3397 9.61724 19.3659 9.74795 19.3659 9.87996C19.3659 10.012 19.3397 10.1427 19.289 10.2645C19.2382 10.3864 19.1638 10.497 19.0701 10.59Z" fill="white"/>
</svg>
