<svg width="48" height="48" viewBox="0 0 48 48" fill="none" xmlns="http://www.w3.org/2000/svg">
<path d="M7.8667 12V15" stroke="white" stroke-width="3" stroke-miterlimit="10" stroke-linecap="round" stroke-linejoin="round"/>
<path d="M13.7334 12V15" stroke="white" stroke-width="3" stroke-miterlimit="10" stroke-linecap="round" stroke-linejoin="round"/>
<path d="M19.6001 12V15" stroke="white" stroke-width="3" stroke-miterlimit="10" stroke-linecap="round" stroke-linejoin="round"/>
<path d="M31.3333 9.00012C31.3333 8.20506 31.0246 7.44164 30.4746 6.87914C29.9246 6.31655 29.1781 6.00015 28.4 6.00015H4.9334C4.156 6.00015 3.40946 6.31655 2.85946 6.87914C2.30946 7.44164 2 8.20506 2 9.00012V18.0001C2 18.7959 2.30946 19.5594 2.85946 20.1219C3.40946 20.6844 4.156 21.0001 4.9334 21.0001H28.4C29.1781 21.0001 29.9246 20.6844 30.4746 20.1219C31.0246 19.5594 31.3333 18.7959 31.3333 18.0001V9.00012Z" stroke="white" stroke-width="2.5" stroke-miterlimit="10" stroke-linecap="round" stroke-linejoin="round"/>
<path d="M18.1333 20.9999H7.86661L2 32.9999H12.2666L18.1333 20.9999Z" stroke="white" stroke-width="2.5" stroke-miterlimit="10" stroke-linecap="round" stroke-linejoin="round"/>
<path d="M37.2 13.5C37.2 12.3067 36.7365 11.1622 35.9115 10.3185C35.0866 9.47472 33.9674 8.99998 32.8 8.99998H31.3333V18H32.8C33.9674 18 35.0866 17.526 35.9115 16.6822C36.7365 15.8385 37.2 14.694 37.2 13.5Z" stroke="white" stroke-width="2.5" stroke-miterlimit="10" stroke-linecap="round" stroke-linejoin="round"/>
<path d="M37.2 13.4999H46" stroke="white" stroke-width="2.5" stroke-miterlimit="10" stroke-linecap="round" stroke-linejoin="round"/>
<path d="M18.1333 39C18.1333 35.6865 15.5072 33 12.2666 33H2V42H18.1333V39Z" stroke="white" stroke-width="2.5" stroke-miterlimit="10" stroke-linecap="round" stroke-linejoin="round"/>
<path d="M22.5333 20.9998V23.9998C22.5333 25.6573 21.2206 26.9999 19.5999 26.9999H15.7866" stroke="white" stroke-width="2.5" stroke-miterlimit="10" stroke-linecap="round" stroke-linejoin="round"/>
</svg>
