<svg width="48" height="48" viewBox="0 0 48 48" fill="none" xmlns="http://www.w3.org/2000/svg">
<g clip-path="url(#clip0_3111_4027)">
<path d="M35.153 29.8306C37.1224 32.6019 36.8648 36.4701 34.3802 38.9546L27.3347 46.0001L26.5065 45.1718C23.9949 42.6603 22.9519 39.2363 23.3774 35.9668" stroke="white" stroke-width="3" stroke-miterlimit="10" stroke-linecap="round" stroke-linejoin="round"/>
<path d="M17.8728 12.5105C15.0925 10.4254 11.1304 10.6472 8.60162 13.1759L1.55615 20.2215L2.38443 21.0498C4.89934 23.5647 8.32923 24.6071 11.6026 24.1771" stroke="white" stroke-width="3" stroke-miterlimit="10" stroke-linecap="round" stroke-linejoin="round"/>
<path d="M44.4859 15.216C41.5366 23.6836 35.4029 30.883 27.1023 35.0774L25.778 35.7465L18.2353 36.9011L10.655 29.3208L11.8096 21.7781L12.0302 21.3417C16.3982 12.6975 24.0111 6.42485 32.8959 3.62599C37.1658 2.28095 41.7294 1.73737 46.3681 2.11984L46.4108 2.12338C46.6054 6.65497 45.9244 11.0863 44.4859 15.216Z" stroke="white" stroke-width="3" stroke-miterlimit="10" stroke-linecap="round" stroke-linejoin="round"/>
<path d="M33.0293 3.75952L44.3525 15.0826" stroke="white" stroke-width="3" stroke-miterlimit="10" stroke-linecap="round" stroke-linejoin="round"/>
<path d="M28.8815 23.4021C31.1854 23.4021 33.0531 21.5344 33.0531 19.2305C33.0531 16.9266 31.1854 15.059 28.8815 15.059C26.5776 15.059 24.71 16.9266 24.71 19.2305C24.71 21.5344 26.5776 23.4021 28.8815 23.4021Z" stroke="white" stroke-width="3" stroke-miterlimit="10" stroke-linecap="round" stroke-linejoin="round"/>
<path d="M25.5782 35.5463L12.01 21.978" stroke="white" stroke-width="3" stroke-miterlimit="10" stroke-linecap="round" stroke-linejoin="round"/>
<path d="M11 37.0001L4 44.0001" stroke="white" stroke-width="3" stroke-miterlimit="10" stroke-linecap="round" stroke-linejoin="round"/>
<path d="M6.63574 33.3037L3.49976 36.5002" stroke="white" stroke-width="3" stroke-miterlimit="10" stroke-linecap="round" stroke-linejoin="round"/>
<path d="M14.6384 41.3063L11.5 44.5001" stroke="white" stroke-width="3" stroke-miterlimit="10" stroke-linecap="round" stroke-linejoin="round"/>
</g>
<defs>
<clipPath id="clip0_3111_4027">
<rect width="48" height="48" fill="white"/>
</clipPath>
</defs>
</svg>
