<svg width="48" height="48" viewBox="0 0 48 48" fill="none" xmlns="http://www.w3.org/2000/svg">
<g clip-path="url(#clip0_3111_4087)">
<path d="M21.4487 38.1692C18.2405 41.3774 13.0389 41.3774 9.83071 38.1692C6.62251 34.961 6.62251 29.7594 9.83071 26.5512C13.0389 23.343 18.2405 23.343 21.4487 26.5512C24.6569 29.7594 24.6569 34.961 21.4487 38.1692Z" stroke="white" stroke-width="2.5" stroke-miterlimit="10" stroke-linecap="round" stroke-linejoin="round"/>
<path d="M17.5761 14.9331C15.5215 16.9877 13.1004 18.6506 10.4062 19.7388C8.78719 20.3928 7.27067 21.366 5.95816 22.6785C0.797953 27.8387 0.551042 36.6347 5.95816 42.0418C11.3548 47.4385 20.16 47.2033 25.3215 42.0418C26.634 40.7292 27.6071 39.2127 28.2611 37.5936C29.3493 34.8994 31.0121 32.4784 33.0668 30.4238L36.9394 26.5511" stroke="white" stroke-width="2.5" stroke-miterlimit="10" stroke-linecap="round" stroke-linejoin="round"/>
<path d="M27.2577 20.7422C26.1883 21.8117 24.4544 21.8117 23.385 20.7422C22.3157 19.6728 22.3157 17.939 23.385 16.8696C24.4544 15.8002 26.1883 15.8002 27.2577 16.8696C28.3272 17.939 28.3272 19.6728 27.2577 20.7422Z" stroke="white" stroke-width="2.5" stroke-miterlimit="10" stroke-linecap="round" stroke-linejoin="round"/>
<path d="M42.1256 2.0017L31.1304 12.9969" stroke="white" stroke-width="2.5" stroke-miterlimit="10" stroke-linecap="round" stroke-linejoin="round"/>
<path d="M29.1941 26.5513L40.1893 15.556" stroke="white" stroke-width="2.5" stroke-miterlimit="10" stroke-linecap="round" stroke-linejoin="round"/>
<path d="M45.9982 17.4922L40.812 22.6785" stroke="white" stroke-width="2.5" stroke-miterlimit="10" stroke-linecap="round" stroke-linejoin="round"/>
<path d="M30.5077 2.00161L21.4487 11.0605" stroke="white" stroke-width="2.5" stroke-miterlimit="10" stroke-linecap="round" stroke-linejoin="round"/>
<path d="M45.0302 12.6515C44.4955 13.1861 43.6286 13.1861 43.0939 12.6515C42.5592 12.1168 42.5592 11.2499 43.0939 10.7152C43.6286 10.1805 44.4955 10.1805 45.0302 10.7152C45.5649 11.2499 45.5649 12.1168 45.0302 12.6515Z" fill="white"/>
<path d="M18.5444 31.3919C18.0097 31.9266 17.1428 31.9266 16.6081 31.3919C16.0734 30.8572 16.0734 29.9903 16.6081 29.4556C17.1428 28.9209 18.0097 28.9209 18.5444 29.4556C19.0791 29.9903 19.0791 30.8572 18.5444 31.3919Z" fill="white"/>
<path d="M16.6079 37.201C16.0731 37.7357 15.2063 37.7357 14.6715 37.201C14.1368 36.6663 14.1368 35.7994 14.6715 35.2647C15.2063 34.73 16.0731 34.73 16.6079 35.2647C17.1426 35.7994 17.1426 36.6663 16.6079 37.201Z" fill="white"/>
<path d="M12.0794 24.9542C13.9004 27.106 13.7962 30.3311 11.7672 32.3603C10.6178 33.5097 9.08455 34.0414 7.58008 33.9554" stroke="white" stroke-width="2.5" stroke-miterlimit="10" stroke-linecap="round" stroke-linejoin="round"/>
</g>
<defs>
<clipPath id="clip0_3111_4087">
<rect width="48" height="48" fill="white"/>
</clipPath>
</defs>
</svg>
