<svg width="48" height="48" viewBox="0 0 48 48" fill="none" xmlns="http://www.w3.org/2000/svg">
<path d="M28.0255 46.2815H44.6368C46.0228 46.2815 46.7807 44.658 45.8831 43.6018C40.7776 37.5939 36.0827 28.0459 32.9685 21.159C32.3288 19.7443 30.5097 19.3377 29.3323 20.3497C28.7782 20.826 28.226 21.313 27.7938 21.7208C26.1837 23.2401 23.6091 23.016 22.2856 21.2415L21.4034 20.0588C20.6923 19.1052 19.6303 18.6805 18.5538 18.7206C17.0769 18.7756 15.79 19.7435 15.2483 21.1186C12.263 28.6944 7.77569 37.3619 2.15319 43.5599C1.20412 44.6061 1.94976 46.2815 3.36229 46.2815H19.8773" stroke="white" stroke-width="2.5" stroke-miterlimit="10" stroke-linecap="round" stroke-linejoin="round"/>
<path d="M36.1774 46.2805C34.0703 43.4953 32.0896 39.6579 30.5037 36.0236" stroke="white" stroke-width="2.5" stroke-miterlimit="10" stroke-linecap="round" stroke-linejoin="round"/>
<path d="M15.0718 40.9559C16.3882 38.4049 17.5702 35.6896 18.526 33.3553" stroke="white" stroke-width="2.5" stroke-miterlimit="10" stroke-linecap="round" stroke-linejoin="round"/>
<path d="M13.1831 26.2922C13.7789 28.8663 16.9713 29.8286 18.8918 27.93L19.3717 27.4556C20.9293 25.916 23.5501 26.2735 24.7179 28.1262M24.7179 28.1262C24.7205 28.1302 24.7217 28.1322 24.723 28.1341C24.7215 28.1319 24.7198 28.1292 24.7179 28.1262ZM24.7179 28.1262C26.0317 30.21 29.0881 30.3298 30.4813 28.2983L31.2523 27.1742C32.1161 25.9147 33.6807 25.4053 35.0816 25.8351" stroke="white" stroke-width="2.5" stroke-miterlimit="10" stroke-linecap="round" stroke-linejoin="round"/>
<path d="M12.1334 15.2801C11.0344 14.8586 10.4851 13.626 10.9065 12.5269C11.328 11.4279 12.5606 10.8785 13.6596 11.3001C15.9216 12.1675 16.9695 14.8519 16.9695 14.8519C14.8269 14.0303 14.0371 16.0101 12.1334 15.2801Z" stroke="white" stroke-width="2.5" stroke-miterlimit="10" stroke-linecap="round" stroke-linejoin="round"/>
<path d="M36.54 17.0295C37.7769 16.857 38.6397 15.7143 38.4672 14.4774C38.2947 13.2405 37.152 12.3777 35.9151 12.5502C33.3694 12.9054 31.6438 15.4294 31.6438 15.4294C34.0552 15.093 34.3974 17.3285 36.54 17.0295Z" stroke="white" stroke-width="2.5" stroke-miterlimit="10" stroke-linecap="round" stroke-linejoin="round"/>
<path d="M32.3771 5.81236C33.0758 4.6376 32.5707 3.18179 31.2491 2.56086C29.9276 1.93984 28.2899 2.38868 27.5913 3.56344C26.1536 5.98126 27.3953 9.04138 27.3953 9.04138C28.7572 6.7512 31.167 7.84724 32.3771 5.81236Z" stroke="white" stroke-width="2.5" stroke-miterlimit="10" stroke-linecap="round" stroke-linejoin="round"/>
<path d="M17.8934 7.4546C17.2849 6.30354 17.7248 4.87716 18.8759 4.26868C20.0268 3.66019 21.4533 4.1001 22.0618 5.25116C23.3141 7.62019 22.2325 10.6185 22.2325 10.6185C21.0463 8.37453 18.9475 9.44846 17.8934 7.4546Z" stroke="white" stroke-width="2.5" stroke-miterlimit="10" stroke-linecap="round" stroke-linejoin="round"/>
<path d="M27.5454 13.6616V17.2303" stroke="white" stroke-width="2.5" stroke-miterlimit="10" stroke-linecap="round" stroke-linejoin="round"/>
<path d="M23.0134 14.4778V16.2712" stroke="white" stroke-width="2.5" stroke-miterlimit="10" stroke-linecap="round" stroke-linejoin="round"/>
</svg>
