<svg width="48" height="48" viewBox="0 0 48 48" fill="none" xmlns="http://www.w3.org/2000/svg">
<path d="M44.2619 22.6675C45.733 29.9445 45.0049 37.4431 42.0784 44.5H5.92157C2.99499 37.4433 2.26705 29.9447 3.73801 22.6679" stroke="white" stroke-width="2.5" stroke-miterlimit="10" stroke-linejoin="round"/>
<path d="M18.75 20.8466C18.75 22.2941 17.5748 23.4674 16.125 23.4674C14.6752 23.4674 13.5 22.2941 13.5 20.8466" stroke="white" stroke-width="2.5" stroke-miterlimit="10" stroke-linecap="round"/>
<path d="M29.25 20.8466C29.25 22.2941 28.0748 23.4674 26.625 23.4674C25.1752 23.4674 24 22.2941 24 20.8466" stroke="white" stroke-width="2.5" stroke-miterlimit="10" stroke-linecap="round"/>
<path d="M39.75 20.8466C39.75 22.2941 38.5748 23.4674 37.125 23.4674C35.6752 23.4674 34.5 22.2941 34.5 20.8466" stroke="white" stroke-width="2.5" stroke-miterlimit="10" stroke-linecap="round"/>
<path d="M13.5 20.8466C13.5 22.2941 12.3248 23.4674 10.875 23.4674C9.42521 23.4674 8.25 22.2941 8.25 20.8466" stroke="white" stroke-width="2.5" stroke-miterlimit="10" stroke-linecap="round"/>
<path d="M24 20.8466C24 22.2941 22.8248 23.4674 21.375 23.4674C19.9252 23.4674 18.75 22.2941 18.75 20.8466" stroke="white" stroke-width="2.5" stroke-miterlimit="10" stroke-linecap="round"/>
<path d="M34.5 20.8466C34.5 22.2941 33.3248 23.4674 31.875 23.4674C30.4252 23.4674 29.25 22.2941 29.25 20.8466" stroke="white" stroke-width="2.5" stroke-miterlimit="10" stroke-linecap="round"/>
<path d="M39.7501 20.8466C39.7501 22.2941 40.9253 23.4674 42.3751 23.4674C43.8104 23.4674 44.9758 22.3171 44.9989 20.8897C44.5664 19.0876 44.0039 17.3009 43.3128 15.5388H4.68741C3.99624 17.301 3.43377 19.0876 3.00122 20.8898C3.0244 22.3172 4.18985 23.4674 5.62509 23.4674C7.07487 23.4674 8.25008 22.2941 8.25008 20.8466" stroke="white" stroke-width="2.5" stroke-miterlimit="10" stroke-linecap="round"/>
<path d="M4.15381 39.2584H43.8465" stroke="white" stroke-width="2.5" stroke-miterlimit="10"/>
<path d="M31.7403 6.91302C32.1987 8.28611 31.4554 9.77038 30.0801 10.2281C28.7047 10.6858 27.2181 9.94377 26.7597 8.57059C26.3012 7.19742 27.0445 5.71314 28.4199 5.25545C29.7953 4.79775 31.2818 5.53984 31.7403 6.91302Z" stroke="white" stroke-width="2.5" stroke-miterlimit="10"/>
<path d="M31.7402 6.91284L41.4999 3.5" stroke="white" stroke-width="2.5" stroke-miterlimit="10" stroke-linecap="round"/>
<path d="M16.2597 6.91302C15.8012 8.28611 16.5446 9.77038 17.9199 10.2281C19.2953 10.6858 20.7818 9.94377 21.2403 8.57059C21.6987 7.19742 20.9555 5.71314 19.5801 5.25545C18.2047 4.79775 16.7181 5.53984 16.2597 6.91302Z" stroke="white" stroke-width="2.5" stroke-miterlimit="10"/>
<path d="M16.2597 6.91284L7.5 4" stroke="white" stroke-width="2.5" stroke-miterlimit="10" stroke-linecap="round"/>
<path d="M16.125 28.7751H21.375" stroke="white" stroke-width="2.5" stroke-miterlimit="10" stroke-linecap="round"/>
<path d="M26.625 28.7751H31.875" stroke="white" stroke-width="2.5" stroke-miterlimit="10" stroke-linecap="round"/>
<path d="M18.75 28.7751C18.75 31.67 21.1005 34.0167 24 34.0167C26.8995 34.0167 29.25 31.67 29.25 28.7751" stroke="white" stroke-width="2.5" stroke-miterlimit="10"/>
</svg>
