<svg width="48" height="48" viewBox="0 0 48 48" fill="none" xmlns="http://www.w3.org/2000/svg">
<g clip-path="url(#clip0_3111_3909)">
<path d="M40.4178 13.0919C40.4187 13.0453 40.4315 13.0022 40.4315 12.9553C40.4315 8.41786 36.7532 4.73957 32.2158 4.73957C30.3522 4.73957 28.6535 5.38359 27.2752 6.42909C25.2777 3.75568 22.1168 2.00098 18.5228 2.00098C12.4728 2.00098 7.56846 6.90533 7.56846 12.9553C7.56846 13.0022 7.5817 13.0453 7.58216 13.0919C4.45058 13.721 2 16.4849 2 19.8018C2 23.5829 5.1565 26.6483 8.93776 26.6483H39.0622C42.8435 26.6483 46 23.5829 46 19.8018C46 16.4849 43.5494 13.721 40.4178 13.0919Z" stroke="white" stroke-width="3" stroke-miterlimit="10" stroke-linecap="round" stroke-linejoin="round"/>
<path d="M26.7385 37.7852L29.4771 32.308" stroke="white" stroke-width="3" stroke-miterlimit="10" stroke-linecap="round" stroke-linejoin="round"/>
<path d="M15.7842 37.7852L18.5228 32.308" stroke="white" stroke-width="3" stroke-miterlimit="10" stroke-linecap="round" stroke-linejoin="round"/>
<path d="M4.82983 37.7852L7.56842 32.308" stroke="white" stroke-width="3" stroke-miterlimit="10" stroke-linecap="round" stroke-linejoin="round"/>
<path d="M37.6931 37.7852L40.4317 32.308" stroke="white" stroke-width="3" stroke-miterlimit="10" stroke-linecap="round" stroke-linejoin="round"/>
<path d="M29.4773 46.001L32.2159 40.5238" stroke="white" stroke-width="3" stroke-miterlimit="10" stroke-linecap="round" stroke-linejoin="round"/>
<path d="M18.5229 46.001L21.2615 40.5238" stroke="white" stroke-width="3" stroke-miterlimit="10" stroke-linecap="round" stroke-linejoin="round"/>
<path d="M7.56836 46.001L10.3069 40.5238" stroke="white" stroke-width="3" stroke-miterlimit="10" stroke-linecap="round" stroke-linejoin="round"/>
</g>
<defs>
<clipPath id="clip0_3111_3909">
<rect width="48" height="48" fill="white"/>
</clipPath>
</defs>
</svg>
