<svg width="48" height="48" viewBox="0 0 48 48" fill="none" xmlns="http://www.w3.org/2000/svg">
<g clip-path="url(#clip0_3111_4116)">
<path d="M20.1262 23.4467L41.1308 2.44217C41.7203 1.85261 42.6762 1.85261 43.2658 2.44217L45.5579 4.73434C46.1475 5.3239 46.1475 6.27977 45.5579 6.86932L24.5534 27.8739" stroke="white" stroke-width="2.75" stroke-miterlimit="10" stroke-linecap="round" stroke-linejoin="round"/>
<path d="M33.2812 7.79407L39.9828 14.4956" stroke="white" stroke-width="2.75" stroke-miterlimit="10" stroke-linecap="round" stroke-linejoin="round"/>
<path d="M37.1218 3.95337L43.8235 10.6549" stroke="white" stroke-width="2.75" stroke-miterlimit="10" stroke-linecap="round" stroke-linejoin="round"/>
<path d="M20.08 32.3985C22.5534 32.3985 24.5584 30.3934 24.5584 27.9201C24.5584 25.4467 22.5534 23.4417 20.08 23.4417C17.6066 23.4417 15.6016 25.4467 15.6016 27.9201C15.6016 30.3934 17.6066 32.3985 20.08 32.3985Z" stroke="white" stroke-width="2.75" stroke-miterlimit="10" stroke-linecap="round" stroke-linejoin="round"/>
<path d="M25.8664 17.7064L24.1527 15.9927C21.8849 13.7096 18.0836 14.1258 16.3635 16.8455L14.7456 19.4036C14.1707 20.2839 13.2023 20.8173 12.1519 20.8637C9.47959 20.9819 6.95695 21.9801 5.04312 23.8941C0.513512 28.4236 1.10891 36.363 6.37305 41.6271C11.6372 46.8911 19.5765 47.4866 24.106 42.9571C26.0164 41.0467 27.0145 38.5298 27.1358 35.863C27.1833 34.8179 27.7135 33.8543 28.5879 33.2797C29.2507 32.8386 30.1631 32.2388 31.1523 31.5942C33.8133 29.8597 34.2106 26.1189 31.9722 23.8653L30.2665 22.1596" stroke="white" stroke-width="2.75" stroke-miterlimit="10" stroke-linecap="round" stroke-linejoin="round"/>
<path d="M10.5195 32.6041L15.3958 37.4804" stroke="white" stroke-width="2.75" stroke-miterlimit="10" stroke-linecap="round" stroke-linejoin="round"/>
</g>
<defs>
<clipPath id="clip0_3111_4116">
<rect width="48" height="48" fill="white"/>
</clipPath>
</defs>
</svg>
