<svg width="48" height="48" viewBox="0 0 48 48" fill="none" xmlns="http://www.w3.org/2000/svg">
<mask id="mask0_3111_3995" style="mask-type:luminance" maskUnits="userSpaceOnUse" x="0" y="0" width="48" height="48">
<path d="M0 3.8147e-06H48V48H0V3.8147e-06Z" fill="white"/>
</mask>
<g mask="url(#mask0_3111_3995)">
<path d="M34.8534 30.8447V28.9414C34.8534 22.9468 29.9938 18.0872 23.9992 18.0872C18.0045 18.0872 13.145 22.9468 13.145 28.9414V30.8458" stroke="white" stroke-width="2.5" stroke-miterlimit="10"/>
<path d="M29.697 34.5466V28.9413C29.697 25.7946 27.146 23.2437 23.9993 23.2437C20.8526 23.2437 18.3018 25.7946 18.3018 28.9413V34.5483" stroke="white" stroke-width="2.5" stroke-miterlimit="10"/>
<path d="M40.0103 29.0519V28.9413C40.0103 20.0988 32.8421 12.9305 23.9996 12.9305C15.1571 12.9305 7.98877 20.0988 7.98877 28.9413V29.0518" stroke="white" stroke-width="2.5" stroke-miterlimit="10"/>
<path d="M45.1667 34.0076V28.9414C45.1667 17.2511 35.6898 7.77407 23.9994 7.77407C12.3089 7.77407 2.83203 17.2511 2.83203 28.9414V34.0076" stroke="white" stroke-width="2.5" stroke-miterlimit="10"/>
<path d="M43.1554 40.2263C45.0525 40.2263 46.5905 38.6883 46.5905 36.7912C46.5905 35.0441 45.2857 33.6026 43.5976 33.3855C43.4128 30.8703 41.3138 28.8871 38.7513 28.8871C36.709 28.8871 34.9611 30.1471 34.2421 31.932C34.0291 31.8985 33.811 31.881 33.5886 31.881C31.6324 31.881 29.9909 33.2271 29.5393 35.0434C28.1307 35.0701 26.9968 36.2193 26.9968 37.6343C26.9968 39.0658 28.1574 40.2263 29.5889 40.2263H43.1554Z" stroke="white" stroke-width="2.5" stroke-miterlimit="10"/>
<path d="M4.84256 40.2262C2.94544 40.2262 1.40747 38.6882 1.40747 36.7911C1.40747 35.044 2.71228 33.6025 4.40035 33.3854C4.58513 30.8701 6.68419 28.8869 9.24666 28.8869C11.289 28.8869 13.0369 30.1469 13.7558 31.9319C13.9688 31.8984 14.187 31.8809 14.4094 31.8809C16.3656 31.8809 18.007 33.227 18.4586 35.0433C19.8672 35.0699 21.0011 36.2192 21.0011 37.6342C21.0011 39.0657 19.8406 40.2262 18.409 40.2262H4.84256Z" stroke="white" stroke-width="2.5" stroke-miterlimit="10"/>
</g>
</svg>
